# xmcd CD database file
#
# Track frame offsets:
#	150
#	79337
#	96480
#	112265
#	128940
#	148712
#	169500
#	191515
#
# Disc length: 2792 seconds
#
# Revision: 0
# Processed by: cddbd v1.5PL3 Copyright (c) Steve Scherf et al.
# Submitted via: CDex 1.51
#
DISCID=730ae608
DTITLE=Chamin Correa - Tributo a Los Panchos
DYEAR=1900
DGENRE=Español
TTITLE0=Popurri Los Panchos
TTITLE1=Hay otro en tu lugar
TTITLE2=Que voy a hacer con este amor
TTITLE3=Cariño verdad
TTITLE4=Bolero
TTITLE5=Me dices que te vas
TTITLE6=Con los años que me quedan
TTITLE7=Toco madera
EXTD=
EXTT0=
EXTT1=
EXTT2=
EXTT3=
EXTT4=
EXTT5=
EXTT6=
EXTT7=
PLAYORDER=
